<svg version="1.1" xmlns="http://www.w3.org/2000/svg" xmlns:xlink="http://www.w3.org/1999/xlink" width="851" height="585"><defs/><g><g transform="translate(-40,-38) scale(1,1)"><path fill="#ffffff" stroke="none" d="M 128.32072727272728 57.68 C 128.32072727272728 52.886167936 132.20656959767274 49 137 49 C 141.79343040232726 49 145.67927272727272 52.886167936 145.67927272727272 57.68 C 145.67927272727272 62.473832064 141.79343040232726 66.36 137 66.36 C 132.20656959767274 66.36 128.32072727272728 62.473832064 128.32072727272728 57.68 Z"/></g><g transform="translate(-40,-38) scale(1,1)"><path fill="none" stroke="#000000" d="M 128.32072727272728 57.68 C 128.32072727272728 52.886167936 132.20656959767274 49 137 49 C 141.79343040232726 49 145.67927272727272 52.886167936 145.67927272727272 57.68 C 145.67927272727272 62.473832064 141.79343040232726 66.36 137 66.36 C 132.20656959767274 66.36 128.32072727272728 62.473832064 128.32072727272728 57.68 Z" stroke-miterlimit="10"/></g><g transform="translate(-40,-38) scale(1,1)"><path fill="none" stroke="#000000" d="M 137 66.36 L 137 83.64" stroke-miterlimit="10"/></g><g transform="translate(-40,-38) scale(1,1)"><path fill="none" stroke="#000000" d="M 127.81018181818183 72.84 L 146.18981818181817 72.84" stroke-miterlimit="10"/></g><g transform="translate(-40,-38) scale(1,1)"><path fill="none" stroke="#000000" d="M 137 83.64 L 124.23636363636365 101" stroke-miterlimit="10"/></g><g transform="translate(-40,-38) scale(1,1)"><path fill="none" stroke="#000000" d="M 137 83.64 L 149.76363636363635 101" stroke-miterlimit="10"/></g><g transform="translate(-40,-38) scale(1,1)"><g><path fill="none" stroke="none"/><text fill="#000000" stroke="none" font-family="Arial" font-size="16px" font-style="normal" font-weight="bold" text-decoration="none" x="103.5" y="124.5">End User</text></g></g><g transform="translate(-40,-38) scale(1,1)"><path fill="#ffffff" stroke="none" d="M 122.03454545454545 231.8 C 122.03454545454545 223.62618496000002 128.51094932945455 217 136.5 217 C 144.48905067054545 217 150.96545454545452 223.62618496000002 150.96545454545452 231.8 C 150.96545454545452 239.97381504 144.48905067054545 246.6 136.5 246.6 C 128.51094932945455 246.6 122.03454545454545 239.97381504 122.03454545454545 231.8 Z"/></g><g transform="translate(-40,-38) scale(1,1)"><path fill="none" stroke="#000000" d="M 122.03454545454545 231.8 C 122.03454545454545 223.62618496000002 128.51094932945455 217 136.5 217 C 144.48905067054545 217 150.96545454545452 223.62618496000002 150.96545454545452 231.8 C 150.96545454545452 239.97381504 144.48905067054545 246.6 136.5 246.6 C 128.51094932945455 246.6 122.03454545454545 239.97381504 122.03454545454545 231.8 Z" stroke-miterlimit="10"/></g><g transform="translate(-40,-38) scale(1,1)"><path fill="none" stroke="#000000" d="M 136.5 246.6 L 136.5 275.4" stroke-miterlimit="10"/></g><g transform="translate(-40,-38) scale(1,1)"><path fill="none" stroke="#000000" d="M 121.18363636363637 257.4 L 151.81636363636363 257.4" stroke-miterlimit="10"/></g><g transform="translate(-40,-38) scale(1,1)"><path fill="none" stroke="#000000" d="M 136.5 275.4 L 115.22727272727273 305" stroke-miterlimit="10"/></g><g transform="translate(-40,-38) scale(1,1)"><path fill="none" stroke="#000000" d="M 136.5 275.4 L 157.77272727272725 305" stroke-miterlimit="10"/></g><g transform="translate(-40,-38) scale(1,1)"><g><path fill="none" stroke="none"/><text fill="#000000" stroke="none" font-family="Arial" font-size="16px" font-style="normal" font-weight="bold" text-decoration="none" x="60" y="328.5">Service Desk Actuary</text></g></g><g transform="translate(-40,-38) scale(1,1)"><path fill="none" stroke="#000000" d="M 137 131 L 136 215" stroke-miterlimit="10"/></g><g transform="translate(-40,-38) scale(1,1)"><path fill="none" stroke="#000000" d="M 131.91175615803468 204.7879354541487 L 136 215 L 140.33019514648834 204.88815496591602" stroke-miterlimit="10"/></g><g transform="translate(-40,-38) scale(1,1)"><path fill="#C0C0C0" stroke="none" d="M 366 98 C 366 87.5065888 402.4887888 79 447.5 79 C 492.5112112 79 529 87.5065888 529 98 C 529 108.4934112 492.5112112 117 447.5 117 C 402.4887888 117 366 108.4934112 366 98 Z" opacity="0.2"/></g><g transform="translate(-40,-38) scale(1,1)"><path fill="#ffffff" stroke="none" d="M 359 91 C 359 80.5065888 395.4887888 72 440.5 72 C 485.5112112 72 522 80.5065888 522 91 C 522 101.4934112 485.5112112 110 440.5 110 C 395.4887888 110 359 101.4934112 359 91 Z"/></g><g transform="translate(-40,-38) scale(1,1)"><path fill="none" stroke="#000000" d="M 359 91 C 359 80.5065888 395.4887888 72 440.5 72 C 485.5112112 72 522 80.5065888 522 91 C 522 101.4934112 485.5112112 110 440.5 110 C 395.4887888 110 359 101.4934112 359 91 Z" stroke-miterlimit="10"/></g><g transform="translate(-40,-38) scale(1,1)"><g><path fill="none" stroke="none"/><text fill="#000000" stroke="none" font-family="Arial" font-size="16px" font-style="normal" font-weight="bold" text-decoration="none" x="389" y="99.5">IT Home Page</text></g></g><g transform="translate(-40,-38) scale(1,1)"><path fill="none" stroke="#000000" d="M 178 89 L 358 90" stroke-miterlimit="10"/></g><g transform="translate(-40,-38) scale(1,1)"><path fill="none" stroke="#000000" d="M 347.81409612128203 94.15299436232675 L 358 90 L 347.8608678190134 85.7340887706749" stroke-miterlimit="10"/></g><g transform="translate(-40,-38) scale(1,1)"><path fill="#C0C0C0" stroke="none" d="M 327 282 C 327 271.5065888 381.1735392 263 448 263 C 514.8264608 263 569 271.5065888 569 282 C 569 292.4934112 514.8264608 301 448 301 C 381.1735392 301 327 292.4934112 327 282 Z" opacity="0.2"/></g><g transform="translate(-40,-38) scale(1,1)"><path fill="#ffffff" stroke="none" d="M 320 275 C 320 264.5065888 374.1735392 256 441 256 C 507.8264608 256 562 264.5065888 562 275 C 562 285.4934112 507.8264608 294 441 294 C 374.1735392 294 320 285.4934112 320 275 Z"/></g><g transform="translate(-40,-38) scale(1,1)"><path fill="none" stroke="#000000" d="M 320 275 C 320 264.5065888 374.1735392 256 441 256 C 507.8264608 256 562 264.5065888 562 275 C 562 285.4934112 507.8264608 294 441 294 C 374.1735392 294 320 285.4934112 320 275 Z" stroke-miterlimit="10"/></g><g transform="translate(-40,-38) scale(1,1)"><g><path fill="none" stroke="none"/><text fill="#000000" stroke="none" font-family="Arial" font-size="16px" font-style="normal" font-weight="bold" text-decoration="none" x="364.5" y="283.5">SM Incedent Console</text></g></g><g transform="translate(-40,-38) scale(1,1)"><path fill="none" stroke="#000000" d="M 224 275 L 319 275" stroke-miterlimit="10"/></g><g transform="translate(-40,-38) scale(1,1)"><path fill="none" stroke="#000000" d="M 308.83732514237585 279.209517756016 L 319 275 L 308.83732514237585 270.790482243984" stroke-miterlimit="10"/></g><g transform="translate(-40,-38) scale(1,1)"><path fill="#ffffff" stroke="none" d="M 124.8037784090909 364.4 C 124.8037784090909 358.10395328 129.8409814229091 353 136.0546875 353 C 142.2683935770909 353 147.3055965909091 358.10395328 147.3055965909091 364.4 C 147.3055965909091 370.69604671999997 142.2683935770909 375.8 136.0546875 375.8 C 129.8409814229091 375.8 124.8037784090909 370.69604671999997 124.8037784090909 364.4 Z"/></g><g transform="translate(-40,-38) scale(1,1)"><path fill="none" stroke="#000000" d="M 124.8037784090909 364.4 C 124.8037784090909 358.10395328 129.8409814229091 353 136.0546875 353 C 142.2683935770909 353 147.3055965909091 358.10395328 147.3055965909091 364.4 C 147.3055965909091 370.69604671999997 142.2683935770909 375.8 136.0546875 375.8 C 129.8409814229091 375.8 124.8037784090909 370.69604671999997 124.8037784090909 364.4 Z" stroke-miterlimit="10"/></g><g transform="translate(-40,-38) scale(1,1)"><path fill="none" stroke="#000000" d="M 136.0546875 375.8 L 136.0546875 398.2" stroke-miterlimit="10"/></g><g transform="translate(-40,-38) scale(1,1)"><path fill="none" stroke="#000000" d="M 124.14196022727272 384.2 L 147.9674147727273 384.2" stroke-miterlimit="10"/></g><g transform="translate(-40,-38) scale(1,1)"><path fill="none" stroke="#000000" d="M 136.0546875 398.2 L 119.50923295454544 421" stroke-miterlimit="10"/></g><g transform="translate(-40,-38) scale(1,1)"><path fill="none" stroke="#000000" d="M 136.0546875 398.2 L 152.60014204545456 421" stroke-miterlimit="10"/></g><g transform="translate(-40,-38) scale(1,1)"><g><path fill="none" stroke="none"/><text fill="#000000" stroke="none" font-family="Arial" font-size="16px" font-style="normal" font-weight="bold" text-decoration="none" x="70.5546875" y="444.5">Group Coordicator</text></g></g><g transform="translate(-40,-38) scale(1,1)"><path fill="none" stroke="#000000" d="M 221 366 L 393 295" stroke-miterlimit="10"/></g><g transform="translate(-40,-38) scale(1,1)"><path fill="none" stroke="#000000" d="M 385.21237987856074 302.7687175804089 L 393 295 L 382.0000081205952 294.98663388505577" stroke-miterlimit="10"/></g><g transform="translate(-40,-38) scale(1,1)"><path fill="#ffffff" stroke="none" d="M 149.15666477272728 540.6800000000001 C 149.15666477272728 535.8861679360001 153.04250709767274 532 157.8359375 532 C 162.62936790232726 532 166.51521022727272 535.8861679360001 166.51521022727272 540.6800000000001 C 166.51521022727272 545.473832064 162.62936790232726 549.36 157.8359375 549.36 C 153.04250709767274 549.36 149.15666477272728 545.473832064 149.15666477272728 540.6800000000001 Z"/></g><g transform="translate(-40,-38) scale(1,1)"><path fill="none" stroke="#000000" d="M 149.15666477272728 540.6800000000001 C 149.15666477272728 535.8861679360001 153.04250709767274 532 157.8359375 532 C 162.62936790232726 532 166.51521022727272 535.8861679360001 166.51521022727272 540.6800000000001 C 166.51521022727272 545.473832064 162.62936790232726 549.36 157.8359375 549.36 C 153.04250709767274 549.36 149.15666477272728 545.473832064 149.15666477272728 540.6800000000001 Z" stroke-miterlimit="10"/></g><g transform="translate(-40,-38) scale(1,1)"><path fill="none" stroke="#000000" d="M 157.8359375 549.36 L 157.8359375 566.64" stroke-miterlimit="10"/></g><g transform="translate(-40,-38) scale(1,1)"><path fill="none" stroke="#000000" d="M 148.64611931818183 555.84 L 167.02575568181817 555.84" stroke-miterlimit="10"/></g><g transform="translate(-40,-38) scale(1,1)"><path fill="none" stroke="#000000" d="M 157.8359375 566.64 L 145.07230113636365 584" stroke-miterlimit="10"/></g><g transform="translate(-40,-38) scale(1,1)"><path fill="none" stroke="#000000" d="M 157.8359375 566.64 L 170.59957386363635 584" stroke-miterlimit="10"/></g><g transform="translate(-40,-38) scale(1,1)"><g><path fill="none" stroke="none"/><text fill="#000000" stroke="none" font-family="Arial" font-size="16px" font-style="normal" font-weight="bold" text-decoration="none" x="113.3359375" y="607.5">Administator</text></g></g><g transform="translate(-40,-38) scale(1,1)"><path fill="none" stroke="#000000" d="M 142 451 L 152 530" stroke-miterlimit="10"/></g><g transform="translate(-40,-38) scale(1,1)"><path fill="none" stroke="#000000" d="M 146.54757640316492 520.4464102599768 L 152 530 L 154.89996239062097 519.3891462109318" stroke-miterlimit="10"/></g><g transform="translate(-40,-38) scale(1,1)"><path fill="none" stroke="#000000" d="M 197 530 L 422 295" stroke-miterlimit="10"/></g><g transform="translate(-40,-38) scale(1,1)"><path fill="none" stroke="#000000" d="M 418.0123521078249 305.25176395982817 L 422 295 L 411.93121531934037 299.42939894957703" stroke-miterlimit="10"/></g><g transform="translate(-40,-38) scale(1,1)"><path fill="#C0C0C0" stroke="none" d="M 348 434 C 348 423.5065888 392.9953776 415 448.5 415 C 504.0046224 415 549 423.5065888 549 434 C 549 444.4934112 504.0046224 453 448.5 453 C 392.9953776 453 348 444.4934112 348 434 Z" opacity="0.2"/></g><g transform="translate(-40,-38) scale(1,1)"><path fill="#ffffff" stroke="none" d="M 341 427 C 341 416.5065888 385.9953776 408 441.5 408 C 497.0046224 408 542 416.5065888 542 427 C 542 437.4934112 497.0046224 446 441.5 446 C 385.9953776 446 341 437.4934112 341 427 Z"/></g><g transform="translate(-40,-38) scale(1,1)"><path fill="none" stroke="#000000" d="M 341 427 C 341 416.5065888 385.9953776 408 441.5 408 C 497.0046224 408 542 416.5065888 542 427 C 542 437.4934112 497.0046224 446 441.5 446 C 385.9953776 446 341 437.4934112 341 427 Z" stroke-miterlimit="10"/></g><g transform="translate(-40,-38) scale(1,1)"><g><path fill="none" stroke="none"/><text fill="#000000" stroke="none" font-family="Arial" font-size="16px" font-style="normal" font-weight="bold" text-decoration="none" x="378" y="435.5">SM Task Console</text></g></g><g transform="translate(-40,-38) scale(1,1)"><path fill="none" stroke="#000000" d="M 213 544 L 402 447" stroke-miterlimit="10"/></g><g transform="translate(-40,-38) scale(1,1)"><path fill="none" stroke="#000000" d="M 394.88064887384 455.3853944178223 L 402 447 L 391.03648928527826 447.89522779681016" stroke-miterlimit="10"/></g><g transform="translate(-40,-38) scale(1,1)"><path fill="none" stroke="#000000" d="M 221 408 L 340 418" stroke-miterlimit="10"/></g><g transform="translate(-40,-38) scale(1,1)"><path fill="none" stroke="#000000" d="M 329.5205202612983 421.34372612606666 L 340 418 L 330.22551739528467 412.95426023162935" stroke-miterlimit="10"/></g><g transform="translate(-40,-38) scale(1,1)"><path fill="#C0C0C0" stroke="none" d="M 359 579 C 359 568.5065888 398.8466528 560 448 560 C 497.1533472 560 537 568.5065888 537 579 C 537 589.4934112 497.1533472 598 448 598 C 398.8466528 598 359 589.4934112 359 579 Z" opacity="0.2"/></g><g transform="translate(-40,-38) scale(1,1)"><path fill="#ffffff" stroke="none" d="M 352 572 C 352 561.5065888 391.8466528 553 441 553 C 490.1533472 553 530 561.5065888 530 572 C 530 582.4934112 490.1533472 591 441 591 C 391.8466528 591 352 582.4934112 352 572 Z"/></g><g transform="translate(-40,-38) scale(1,1)"><path fill="none" stroke="#000000" d="M 352 572 C 352 561.5065888 391.8466528 553 441 553 C 490.1533472 553 530 561.5065888 530 572 C 530 582.4934112 490.1533472 591 441 591 C 391.8466528 591 352 582.4934112 352 572 Z" stroke-miterlimit="10"/></g><g transform="translate(-40,-38) scale(1,1)"><g><path fill="none" stroke="none"/><text fill="#000000" stroke="none" font-family="Arial" font-size="16px" font-style="normal" font-weight="bold" text-decoration="none" x="385" y="580.5">CMDB Console</text></g></g><g transform="translate(-40,-38) scale(1,1)"><path fill="none" stroke="#000000" d="M 213 572 L 351 572" stroke-miterlimit="10"/></g><g transform="translate(-40,-38) scale(1,1)"><path fill="none" stroke="#000000" d="M 340.83732514237585 576.209517756016 L 351 572 L 340.83732514237585 567.790482243984" stroke-miterlimit="10"/></g><g transform="translate(-40,-38) scale(1,1)"><path fill="#C0C0C0" stroke="none" d="M 638 183 C 638 169.7451648 693.9644 159 763 159 C 832.0356 159 888 169.7451648 888 183 C 888 196.2548352 832.0356 207 763 207 C 693.9644 207 638 196.2548352 638 183 Z" opacity="0.2"/></g><g transform="translate(-40,-38) scale(1,1)"><path fill="#ffffff" stroke="none" d="M 631 176 C 631 162.7451648 686.9644 152 756 152 C 825.0356 152 881 162.7451648 881 176 C 881 189.2548352 825.0356 200 756 200 C 686.9644 200 631 189.2548352 631 176 Z"/></g><g transform="translate(-40,-38) scale(1,1)"><path fill="none" stroke="#000000" d="M 631 176 C 631 162.7451648 686.9644 152 756 152 C 825.0356 152 881 162.7451648 881 176 C 881 189.2548352 825.0356 200 756 200 C 686.9644 200 631 189.2548352 631 176 Z" stroke-miterlimit="10"/></g><g transform="translate(-40,-38) scale(1,1)"><g><path fill="none" stroke="none"/><text fill="#000000" stroke="none" font-family="Arial" font-size="16px" font-style="normal" font-weight="bold" text-decoration="none" x="677" y="184.5">Incedent Management</text></g></g><g transform="translate(-40,-38) scale(1,1)"><path fill="#C0C0C0" stroke="none" d="M 639 427 C 639 411.5360256 694.5166848 399 763 399 C 831.4833152 399 887 411.5360256 887 427 C 887 442.4639744 831.4833152 455 763 455 C 694.5166848 455 639 442.4639744 639 427 Z" opacity="0.2"/></g><g transform="translate(-40,-38) scale(1,1)"><path fill="#ffffff" stroke="none" d="M 632 420 C 632 404.5360256 687.5166848 392 756 392 C 824.4833152 392 880 404.5360256 880 420 C 880 435.4639744 824.4833152 448 756 448 C 687.5166848 448 632 435.4639744 632 420 Z"/></g><g transform="translate(-40,-38) scale(1,1)"><path fill="none" stroke="#000000" d="M 632 420 C 632 404.5360256 687.5166848 392 756 392 C 824.4833152 392 880 404.5360256 880 420 C 880 435.4639744 824.4833152 448 756 448 C 687.5166848 448 632 435.4639744 632 420 Z" stroke-miterlimit="10"/></g><g transform="translate(-40,-38) scale(1,1)"><g><path fill="none" stroke="none"/><text fill="#000000" stroke="none" font-family="Arial" font-size="16px" font-style="normal" font-weight="bold" text-decoration="none" x="690" y="428.5">Task Management</text></g></g><g transform="translate(-40,-38) scale(1,1)"><path fill="#C0C0C0" stroke="none" d="M 639 575 C 639 561.7451648 694.5166848 551 763 551 C 831.4833152 551 887 561.7451648 887 575 C 887 588.2548352 831.4833152 599 763 599 C 694.5166848 599 639 588.2548352 639 575 Z" opacity="0.2"/></g><g transform="translate(-40,-38) scale(1,1)"><path fill="#ffffff" stroke="none" d="M 632 568 C 632 554.7451648 687.5166848 544 756 544 C 824.4833152 544 880 554.7451648 880 568 C 880 581.2548352 824.4833152 592 756 592 C 687.5166848 592 632 581.2548352 632 568 Z"/></g><g transform="translate(-40,-38) scale(1,1)"><path fill="none" stroke="#000000" d="M 632 568 C 632 554.7451648 687.5166848 544 756 544 C 824.4833152 544 880 554.7451648 880 568 C 880 581.2548352 824.4833152 592 756 592 C 687.5166848 592 632 581.2548352 632 568 Z" stroke-miterlimit="10"/></g><g transform="translate(-40,-38) scale(1,1)"><g><path fill="none" stroke="none"/><text fill="#000000" stroke="none" font-family="Arial" font-size="16px" font-style="normal" font-weight="bold" text-decoration="none" x="683.5" y="576.5">CMDB Management</text></g></g><g transform="translate(-40,-38) scale(1,1)"><path fill="none" stroke="#000000" d="M 514 111 L 663 151" stroke-miterlimit="10"/></g><g transform="translate(-40,-38) scale(1,1)"><path fill="none" stroke="#000000" d="M 652.0934284046219 152.43062784639875 L 663 151 L 654.2762826138687 144.2994959169544" stroke-miterlimit="10"/></g><g transform="translate(-40,-38) scale(1,1)"><path fill="none" stroke="#000000" d="M 505 255 L 676 201" stroke-miterlimit="10"/></g><g transform="translate(-40,-38) scale(1,1)"><path fill="none" stroke="#000000" d="M 667.5766672645996 208.07442334248753 L 676 201 L 665.0414315841505 200.0461770210651" stroke-miterlimit="10"/></g><g transform="translate(-40,-38) scale(1,1)"><path fill="none" stroke="#000000" d="M 543 425 L 631 423" stroke-miterlimit="10"/></g><g transform="translate(-40,-38) scale(1,1)"><path fill="none" stroke="#000000" d="M 620.9355949430687 427.43934126307227 L 631 423 L 620.7443026245161 419.0224792467554" stroke-miterlimit="10"/></g><g transform="translate(-40,-38) scale(1,1)"><path fill="none" stroke="#000000" d="M 531 571 L 631 570" stroke-miterlimit="10"/></g><g transform="translate(-40,-38) scale(1,1)"><path fill="none" stroke="#000000" d="M 620.879926310971 574.3109289635324 L 631 570 L 620.7957401650527 565.8923143717074" stroke-miterlimit="10"/></g></g></svg>